<svg width="47" height="47" viewBox="0 0 47 47" fill="none" xmlns="http://www.w3.org/2000/svg">
<path fill-rule="evenodd" clip-rule="evenodd" d="M12.8223 0.235375C12.1284 0.708436 12.0575 0.901092 12.0206 2.41594L11.9872 3.7859L9.35376 3.83389C6.46672 3.8866 6.12629 3.94147 4.75359 4.57564C2.40822 5.65924 0.741864 7.72904 0.163265 10.2776C0.0151537 10.93 -0.00207812 12.5003 0.000178421 25.1891C0.00243496 37.7751 0.0211028 39.4522 0.165727 40.0895C0.626267 42.1174 1.86675 43.9577 3.56008 45.1248C4.16996 45.5452 5.33516 46.0769 6.15624 46.3096C6.77956 46.4863 7.38513 46.4986 15.4569 46.4986C24.0172 46.4986 24.0933 46.4967 24.3741 46.2867C24.9124 45.8843 25.0804 45.5558 25.0804 44.906C25.0804 44.2562 24.9125 43.9279 24.3743 43.5252C24.095 43.3163 23.9733 43.3126 15.611 43.2592C9.84292 43.2223 7.03034 43.169 6.81699 43.0922C5.1251 42.4836 3.96257 41.3289 3.48572 39.7834C3.29166 39.1543 3.28427 38.7827 3.28427 29.6882V20.246H23.4825H43.6806L43.7145 22.1211C43.7462 23.8798 43.7632 24.0205 43.9894 24.3848C44.6216 25.4036 45.9694 25.4207 46.7164 24.4195C46.9146 24.1538 46.9312 23.9599 46.9792 21.3433C47.0074 19.8073 47.0069 16.7242 46.9781 14.4919L46.9256 10.4333L46.6023 9.50353C45.851 7.34342 44.497 5.74185 42.575 4.74025C41.1101 3.97681 40.6069 3.88444 37.6274 3.83214L34.9939 3.7859L34.9606 2.41594C34.9314 1.21808 34.9002 1.00949 34.7126 0.756215C33.9658 -0.252072 32.7089 -0.252072 31.9621 0.756215C31.7743 1.0098 31.7433 1.21797 31.714 2.4259L31.6803 3.80594H23.4906H15.3009L15.2672 2.4259C15.2379 1.21797 15.2069 1.0098 15.0191 0.756215C14.655 0.264659 14.1787 0.00418702 13.6439 0.00418702C13.3124 0.00418702 13.0552 0.0765231 12.8223 0.235375ZM12.0205 8.47398C12.0498 9.68191 12.0808 9.89008 12.2686 10.1437C13.0154 11.152 14.2723 11.152 15.0191 10.1437C15.2069 9.89008 15.2379 9.68191 15.2672 8.47398L15.3009 7.09394H23.4906H31.6803L31.714 8.47398C31.7433 9.68191 31.7743 9.89008 31.9621 10.1437C32.7089 11.152 33.9658 11.152 34.7126 10.1437C34.9004 9.89008 34.9314 9.68191 34.9607 8.47398L34.9944 7.09394H37.1701C38.7897 7.09394 39.5021 7.13422 39.9572 7.25136C41.6826 7.69544 42.9851 8.91817 43.4955 10.5725C43.6753 11.1556 43.6969 11.5332 43.6969 14.0917V16.958H23.4906H3.28427V14.0917C3.28427 11.5115 3.30478 11.1589 3.49033 10.5571C3.8799 9.29372 4.77092 8.24464 5.96843 7.63954C6.87156 7.18313 7.37395 7.11203 9.76394 7.10268L11.9868 7.09394L12.0205 8.47398ZM34.1579 24.1561C32.4998 24.3601 30.4402 25.1429 29.0194 26.1095C28.1881 26.675 26.9899 27.8231 26.3531 28.6641C25.6839 29.5481 24.7875 31.3714 24.4708 32.4934C23.7723 34.9672 23.9546 37.7484 24.9696 40.1C26.4071 43.4309 29.1498 45.7718 32.7906 46.7756C33.4764 46.9647 33.871 46.9974 35.4913 46.9998C37.236 47.0025 37.4714 46.9804 38.4146 46.7254C39.6174 46.4001 41.0557 45.73 42.0929 45.0118C42.9872 44.3925 44.2622 43.1263 44.8966 42.2274C45.5731 41.2689 46.3313 39.6297 46.6358 38.4673C46.9878 37.1234 47.0761 35.0112 46.8377 33.6373C46.028 28.9697 42.3499 25.1853 37.7791 24.3166C36.6958 24.1108 35.1012 24.0401 34.1579 24.1561ZM37.4136 27.5965C40.2127 28.2385 42.4796 30.381 43.3888 33.2438C43.7339 34.3304 43.7888 36.2419 43.5088 37.4152C43.1376 38.9703 42.4981 40.1468 41.4032 41.2892C40.2927 42.4475 38.9652 43.1998 37.3475 43.5873C36.1763 43.8678 34.2682 43.8127 33.1835 43.4671C30.306 42.55 28.2241 40.3286 27.5257 37.43C27.2806 36.4124 27.306 34.5966 27.5801 33.5521C28.5697 29.7801 32.0873 27.1792 35.9016 27.3994C36.3811 27.4271 37.0615 27.5157 37.4136 27.5965ZM39.2351 31.3582C39.1223 31.4196 38.0032 32.4926 36.7482 33.7427L34.4664 36.0155L33.3121 34.8712C31.9873 33.5578 31.6584 33.3523 31.0008 33.4266C29.901 33.5508 29.192 34.8017 29.6892 35.7407C29.9121 36.1615 33.5525 39.7432 33.8825 39.8663C34.2939 40.0197 34.7322 39.9997 35.1118 39.8099C35.5788 39.5763 41.1032 34.0467 41.3562 33.5597C41.8925 32.5264 41.088 31.2356 39.9123 31.2433C39.6527 31.245 39.348 31.2967 39.2351 31.3582Z" fill="#D29650"/>
</svg>
