<svg width="51" height="36" viewBox="0 0 51 36" fill="none" xmlns="http://www.w3.org/2000/svg">
<path fill-rule="evenodd" clip-rule="evenodd" d="M5.24388 0.247962C4.75534 0.58661 4.52333 1.11405 4.58333 1.75017C4.64163 2.36921 4.88729 2.72718 5.45765 3.02455L5.89655 3.25329H18.632H31.3674V9.23651V15.2197L31.5917 15.5558C31.7149 15.7407 31.9425 15.9876 32.0972 16.1046C32.3749 16.3146 32.4623 16.3177 38.924 16.3478L45.4694 16.3784L46.6398 17.9236L47.8103 19.4689L47.8108 23.6626L47.8114 27.8563H46.2749H44.7382L44.5305 27.2197C43.9748 25.5161 42.3303 23.8735 40.5885 23.2822C37.2711 22.156 33.5725 23.9722 32.4748 27.2663L32.2952 27.8055H27.5386H22.7819L22.5028 27.0739C21.9508 25.6265 20.8863 24.4257 19.5078 23.6951C18.5403 23.1824 17.6759 22.9604 16.6203 22.9537C15.4926 22.9466 14.741 23.1146 13.7773 23.5891C12.2106 24.3607 10.9411 25.7903 10.4705 27.3132L10.3067 27.8431L8.00577 27.8751C5.47609 27.9103 5.29231 27.9522 4.81833 28.6008C4.51027 29.0224 4.52213 30.0202 4.84065 30.4757C5.29062 31.1194 5.45595 31.1568 8.01275 31.1939L10.3207 31.2275L10.5366 31.8163C11.0128 33.1157 12.2874 34.5951 13.4972 35.2529C14.7816 35.9512 16.6824 36.1938 18.0667 35.836C20.0827 35.315 21.7769 33.794 22.5085 31.8482L22.7468 31.2142L27.5372 31.2128L32.3277 31.2113L32.5 31.769C32.7318 32.5193 33.5418 33.7305 34.2373 34.3669C34.8819 34.9565 36.3251 35.7118 37.1277 35.8794C37.9699 36.0551 39.3131 36.0144 40.1863 35.7865C42.0648 35.2964 43.7177 33.7991 44.4511 31.9229L44.7095 31.2621L47.2819 31.2113C49.7443 31.1626 49.8701 31.1505 50.2211 30.9278C50.4364 30.7913 50.673 30.5157 50.7942 30.2604C50.9952 29.8368 51.0006 29.6814 51 24.2913C50.9997 20.9717 50.9602 18.6148 50.9014 18.4014C50.8456 18.1992 50.1317 17.1675 49.2482 16.0123L47.6931 13.979L45.3004 9.09906C43.9844 6.41509 42.7941 4.0656 42.6555 3.87793C42.2035 3.266 42.112 3.25329 38.1564 3.25329H34.5742L34.5404 2.14209C34.5032 0.914481 34.4066 0.677397 33.7603 0.228747L33.4308 0H19.5162H5.60156L5.24388 0.247962ZM42.0308 9.75927C42.908 11.5483 43.6257 13.0351 43.6257 13.0634C43.6257 13.0917 41.5851 13.1148 39.0911 13.1148H34.5566V9.81071V6.50659H37.4963H40.4359L42.0308 9.75927ZM3.5038 6.85439C2.89059 7.12675 2.49892 7.95349 2.65419 8.64756C2.77538 9.18852 3.03191 9.5227 3.50609 9.75683C3.92636 9.96433 4.02762 9.96677 11.2143 9.93973C18.4263 9.91268 18.4994 9.91035 18.778 9.6997C18.9328 9.58268 19.1602 9.33573 19.2836 9.15091C19.7475 8.45562 19.4647 7.35783 18.7101 6.92525C18.337 6.71134 18.2883 6.70992 11.0729 6.71388C5.22076 6.71714 3.75156 6.74438 3.5038 6.85439ZM0.867877 13.3436C0.263635 13.6547 -0.0484028 14.2097 0.00611154 14.8761C0.0507595 15.4231 0.27679 15.7966 0.770608 16.1394L1.10009 16.3681H8.44547H15.7909L16.1203 16.1394C16.5973 15.8083 16.8326 15.436 16.8842 14.931C16.9505 14.2811 16.6042 13.6423 16.0235 13.3436L15.5788 13.1148H8.44547H1.31216L0.867877 13.3436ZM3.39308 19.8203C2.54098 20.3503 2.36289 21.5635 3.03071 22.2884C3.56768 22.8714 3.59619 22.8747 7.92834 22.8747C11.8917 22.8747 11.9034 22.8741 12.339 22.6391C13.2189 22.1644 13.4774 20.9739 12.8624 20.2283C12.3539 19.6117 12.4338 19.6214 7.87741 19.6218C3.92407 19.6221 3.69535 19.6323 3.39308 19.8203ZM17.6802 26.4479C18.4439 26.7394 19.1093 27.3869 19.4569 28.177C19.7013 28.7328 19.7259 28.8877 19.6861 29.6241C19.6314 30.6358 19.3318 31.2991 18.6551 31.9067C17.1935 33.2192 14.9558 32.9291 13.9052 31.2911C13.01 29.8954 13.1799 28.2873 14.3448 27.1267C15.2174 26.2573 16.4982 25.9968 17.6802 26.4479ZM39.8807 26.5285C41.8597 27.5156 42.3151 30.2457 40.7581 31.7871C39.208 33.3218 36.6481 32.9113 35.6858 30.974C34.7719 29.1343 35.6834 26.97 37.646 26.3198C38.1447 26.1546 39.3583 26.2678 39.8807 26.5285Z" fill="#D29650"/>
</svg>
