<svg width="48" height="48" viewBox="0 0 48 48" fill="none" xmlns="http://www.w3.org/2000/svg">
<path fill-rule="evenodd" clip-rule="evenodd" d="M24.1419 0.0281509C21.9944 0.259676 19.8917 1.03137 18.0298 2.27145C15.1116 4.21512 13.0629 7.26126 12.3012 10.7892C12.0645 11.885 12.0665 14.9853 12.3046 16.0891C13.4757 21.5203 17.6011 25.5889 23.0379 26.6751C24.1859 26.9043 26.8227 26.9034 27.9758 26.6732C33.5855 25.5534 37.7669 21.2836 38.7842 15.6366C38.974 14.5826 38.974 12.279 38.7842 11.2251C38.0096 6.92514 35.2551 3.21979 31.4581 1.37012C30.3724 0.841305 29.1276 0.418405 28.0172 0.201232C27.2573 0.0525417 24.8943 -0.0529956 24.1419 0.0281509ZM27.1489 2.92184C29.4734 3.29896 31.4856 4.34655 33.1325 6.03703C36.2956 9.28383 37.0439 14.1708 34.9973 18.2152C33.9474 20.2898 32.3013 21.928 30.2387 22.9506C26.792 24.6594 22.8251 24.4092 19.5928 22.2791C18.8323 21.778 17.5682 20.5741 16.954 19.7661C16.3085 18.9168 15.5152 17.2699 15.2129 16.1514C14.9792 15.2866 14.9594 15.0738 14.9594 13.4308C14.9594 11.7994 14.9803 11.5713 15.2061 10.7379C15.6902 8.95089 16.566 7.41727 17.8816 6.05222C20.2942 3.54916 23.7725 2.37418 27.1489 2.92184ZM3.87709 4.60388C3.49149 4.7718 3.10561 5.24911 3.0301 5.65137C2.94925 6.08271 3.20484 6.75656 3.54007 6.99521C3.67936 7.09446 4.52447 7.53819 5.41798 7.98145C7.19937 8.86496 7.55815 8.94695 8.12693 8.60004C8.6052 8.30838 8.82281 7.88754 8.78201 7.33312C8.72357 6.53873 8.58954 6.42362 6.52938 5.39958C5.50296 4.88934 4.55064 4.47357 4.41314 4.47554C4.27563 4.47761 4.03448 4.5353 3.87709 4.60388ZM44.6365 5.316C43.6822 5.78946 42.8023 6.26818 42.6813 6.37972C41.7303 7.25695 42.3026 8.78569 43.5823 8.78681C44.1474 8.78738 47.4259 7.153 47.7374 6.71556C48.0537 6.27137 48.0852 5.6312 47.8105 5.231C47.5071 4.78878 47.1707 4.56054 46.7388 4.50359C46.4167 4.4611 46.1592 4.56063 44.6365 5.316ZM24.9814 6.09988C24.5745 6.28422 24.1986 6.77007 24.1296 7.20094C24.0819 7.49982 24.0238 7.58116 23.8249 7.62778C23.3089 7.7487 22.4725 8.27545 22.0332 8.75633C20.3185 10.6326 21.0896 13.6946 23.5058 14.6043C23.9291 14.7637 24.3352 14.8201 25.3568 14.8614C26.5597 14.91 26.6828 14.9316 26.881 15.1298C27.1733 15.4223 27.1687 15.9162 26.8704 16.2634L26.6442 16.5266L25.0648 16.5735C24.0595 16.6033 23.4112 16.6628 23.2816 16.7371C22.7476 17.0428 22.4902 17.7323 22.6771 18.3563C22.8078 18.7926 23.3217 19.2636 23.7559 19.3451C24.0295 19.3965 24.0863 19.4527 24.1368 19.7222C24.2473 20.3113 24.9303 20.8888 25.5162 20.8888C25.6306 20.8888 25.8985 20.8044 26.1116 20.7012C26.5305 20.4984 26.9089 19.9539 26.9089 19.5541C26.9089 19.3639 26.9785 19.3033 27.3076 19.207C28.2437 18.9328 29.1633 18.1145 29.6122 17.1568C29.8323 16.6871 29.8635 16.5038 29.8635 15.6823C29.8635 14.8608 29.8323 14.6775 29.6122 14.2078C29.2613 13.459 28.6024 12.7878 27.859 12.4215C27.2737 12.1332 27.171 12.1146 25.8794 12.0617C25.1302 12.031 24.4457 11.9747 24.3586 11.9365C23.9797 11.7708 23.7929 11.1466 24.004 10.7521C24.2083 10.3703 24.5695 10.2882 26.0462 10.2882C27.3432 10.2882 27.4669 10.2728 27.7627 10.0752C28.3411 9.68871 28.5704 8.90117 28.2724 8.32461C28.0757 7.9443 27.6326 7.60114 27.2439 7.52815C26.9748 7.47768 26.9089 7.4228 26.9089 7.24897C26.9089 6.98714 26.5762 6.4785 26.2442 6.23262C25.9279 5.99828 25.3419 5.93674 24.9814 6.09988ZM5.21979 18.9891C3.48333 19.8681 3.40435 19.9203 3.19593 20.3259C2.84391 21.011 3.01472 21.6502 3.6834 22.1494C4.20003 22.5352 4.62812 22.4338 6.57909 21.4629C8.5493 20.4826 8.72301 20.3307 8.78145 19.5372C8.8229 18.9735 8.6082 18.5551 8.12693 18.2616C7.5377 17.9023 7.20012 17.9868 5.21979 18.9891ZM42.8448 18.2874C42.4033 18.5824 42.1786 19.0496 42.2238 19.5782C42.2876 20.3243 42.4371 20.4493 44.49 21.4706C46.1506 22.2968 46.4149 22.4011 46.7388 22.3583C47.1708 22.3011 47.5072 22.0728 47.8105 21.6307C47.9847 21.3769 48.0216 21.2215 47.9896 20.8774C47.9194 20.1229 47.7136 19.9471 45.7509 18.9649C43.7654 17.9713 43.4337 17.894 42.8448 18.2874ZM37.7856 28.8508C36.9122 29.0423 35.8105 29.5123 35.0997 29.9968C34.8508 30.1664 34.0932 30.8483 33.4161 31.5119L32.1849 32.7185L31.9355 32.2928C31.3205 31.2431 30.0595 30.3911 28.8088 30.1801C28.3517 30.103 26.5614 30.0815 22.682 30.1065C16.6551 30.1453 16.8361 30.129 15.5637 30.7507C14.6258 31.209 13.5498 32.3313 13.0118 33.4126C12.7807 33.8769 12.5665 34.3533 12.5359 34.4711C12.4814 34.6803 12.4556 34.6847 11.417 34.6588L10.3538 34.6321L10.3056 33.5533C10.2522 32.3605 10.1784 32.1669 9.65029 31.8359C9.32509 31.6321 9.2827 31.6302 5.13143 31.6302C1.04536 31.6302 0.934489 31.635 0.681894 31.8236C0.539416 31.93 0.335877 32.1336 0.229511 32.2761C0.0386346 32.5316 0.0357269 32.6295 0.0109645 39.7051C-0.0137979 46.753 -0.010984 46.8816 0.176328 47.2489C0.299578 47.4904 0.497677 47.6891 0.73714 47.8113C1.09122 47.992 1.28323 48.0002 5.16773 48C9.69475 47.9999 9.65882 48.0046 10.0939 47.3531C10.2826 47.0707 10.3069 46.9184 10.3069 46.0191V45.0038L20.6011 44.974C32.1596 44.9406 31.254 44.9965 32.7712 44.2247C33.4912 43.8584 33.7521 43.6128 39.214 38.1588C45.521 31.8608 45.2132 32.2319 44.8717 31.3375C44.5626 30.5281 42.6789 29.2967 41.1661 28.9151C40.1975 28.6707 38.7341 28.6429 37.7856 28.8508ZM40.2281 31.5891C40.4602 31.6414 40.8329 31.753 41.0563 31.8369L41.4625 31.9897L36.7436 36.7099C31.74 41.715 31.5804 41.8522 30.4921 42.0799C30.1464 42.1522 26.9957 42.1839 20.1509 42.1839H10.3069V39.847V37.5101L12.2063 37.4782C13.9137 37.4496 14.1385 37.4271 14.4306 37.2555C14.877 36.9932 15.0933 36.579 15.1912 35.7987C15.3457 34.5681 15.8962 33.7688 16.9448 33.2523L17.5718 32.9435L22.8473 32.9158C26.4398 32.8968 28.2437 32.9204 28.502 32.9901C30.1418 33.4316 30.1033 35.7065 28.4494 36.0902C28.2469 36.1371 26.8319 36.1765 25.3048 36.1777C22.5813 36.18 22.5223 36.184 22.219 36.3911C21.3263 37.0005 21.379 38.2039 22.3227 38.7598C22.6171 38.9333 22.8399 38.9497 25.2675 38.9767C28.4313 39.012 29.1287 38.9379 30.098 38.4637C30.7437 38.1479 31.0441 37.8791 33.7561 35.1913C36.8816 32.0937 37.1169 31.9069 38.2371 31.6353C38.8851 31.4782 39.6563 31.4603 40.2281 31.5891ZM7.49296 39.7917V45.1859H5.14803H2.80311V39.7917V34.3976H5.14803H7.49296V39.7917Z" fill="#D29650"/>
</svg>
