<svg width="50" height="50" viewBox="0 0 50 50" fill="none" xmlns="http://www.w3.org/2000/svg">
<circle cx="25" cy="25" r="25" fill="#CB883A"/>
<path d="M34.9999 30.92V33.92C35.0011 34.1985 34.944 34.4742 34.8324 34.7294C34.7209 34.9845 34.5572 35.2136 34.352 35.4019C34.1468 35.5901 33.9045 35.7335 33.6407 35.8227C33.3769 35.9119 33.0973 35.9451 32.8199 35.92C29.7428 35.5856 26.7869 34.5342 24.1899 32.85C21.7738 31.3147 19.7253 29.2662 18.1899 26.85C16.4999 24.2412 15.4482 21.271 15.1199 18.18C15.0949 17.9035 15.1278 17.6248 15.2164 17.3616C15.3051 17.0985 15.4475 16.8567 15.6347 16.6516C15.8219 16.4466 16.0497 16.2827 16.3037 16.1705C16.5577 16.0583 16.8323 16.0003 17.1099 16H20.1099C20.5952 15.9952 21.0657 16.1671 21.4337 16.4835C21.8017 16.8 22.042 17.2395 22.1099 17.72C22.2366 18.6801 22.4714 19.6227 22.8099 20.53C22.9445 20.8879 22.9736 21.2769 22.8938 21.6509C22.8141 22.0249 22.6288 22.3681 22.3599 22.64L21.0899 23.91C22.5135 26.4136 24.5864 28.4865 27.0899 29.91L28.3599 28.64C28.6318 28.3711 28.9751 28.1859 29.3491 28.1061C29.723 28.0263 30.112 28.0555 30.4699 28.19C31.3772 28.5286 32.3199 28.7634 33.2799 28.89C33.7657 28.9585 34.2093 29.2032 34.5265 29.5775C34.8436 29.9518 35.0121 30.4296 34.9999 30.92Z" stroke="white" stroke-width="2" stroke-linecap="round" stroke-linejoin="round"/>
</svg>
