<svg width="38" height="51" viewBox="0 0 38 51" fill="none" xmlns="http://www.w3.org/2000/svg">
<path fill-rule="evenodd" clip-rule="evenodd" d="M17.8651 0.133195C16.6048 0.439655 15.3919 1.40502 14.7829 2.58647L14.49 3.1546L12.4856 3.18502C10.6425 3.21295 10.4593 3.23201 10.2076 3.42115C9.6141 3.86717 9.52748 4.08994 9.49137 5.2628L9.45793 6.34848L5.91957 6.37811L2.3812 6.40774L1.82698 6.6691C1.12244 7.0013 0.59034 7.53631 0.259948 8.2447L0 8.80195V28.7039V48.6058L0.259948 49.163C0.59034 49.8714 1.12244 50.4064 1.82698 50.7386L2.3812 51H19H35.6188L36.173 50.7386C36.8776 50.4064 37.4097 49.8714 37.7401 49.163L38 48.6058V28.7039V8.80195L37.7401 8.2447C37.4097 7.53631 36.8776 7.0013 36.173 6.6691L35.6188 6.40774L32.0804 6.37811L28.5421 6.34848L28.5086 5.2628C28.4725 4.08994 28.3859 3.86717 27.7924 3.42115C27.5407 3.23201 27.3575 3.21295 25.5144 3.18502L23.51 3.1546L23.2171 2.58647C22.2117 0.63628 19.9879 -0.383058 17.8651 0.133195ZM19.8694 3.43212C20.3134 3.76542 20.4946 4.10091 20.5875 4.76171C20.6811 5.4283 20.861 5.75741 21.3199 6.10227C21.5697 6.29012 21.7566 6.31067 23.4717 6.339L25.3499 6.36993V7.96008V9.55014H19H12.6501V7.954V6.35786H14.3896C15.6343 6.35786 16.2212 6.31915 16.453 6.22179C16.8903 6.03813 17.2928 5.53465 17.3636 5.08304C17.3957 4.87883 17.4439 4.56728 17.4708 4.39051C17.5306 3.99736 17.943 3.48609 18.3501 3.30034C18.7518 3.11719 19.541 3.18562 19.8694 3.43212ZM9.49127 10.6405C9.52748 11.8188 9.6137 12.0408 10.2079 12.4868C10.4797 12.6909 10.5516 12.6926 19 12.6926C27.4484 12.6926 27.5203 12.6909 27.7921 12.4868C28.3863 12.0408 28.4725 11.8188 28.5087 10.6405L28.5424 9.55014H31.7085H34.8747V28.7039V47.8576H19H3.12533V28.7039V9.55014H6.29153H9.45763L9.49127 10.6405ZM16.8172 19.2318C16.6808 19.2883 15.3313 20.5773 13.8181 22.096L11.0671 24.8574L9.84944 23.6473C8.54147 22.3473 8.30652 22.2181 7.52053 22.3664C7.03218 22.4585 6.43867 23.0552 6.34709 23.5462C6.18884 24.3942 6.26663 24.5128 8.36754 26.6276C10.0287 28.2997 10.3738 28.6015 10.6906 28.6588C11.5913 28.8217 11.5218 28.8755 15.304 25.0825C17.7864 22.5929 18.8334 21.4772 18.9121 21.2373C19.133 20.5641 18.8886 19.849 18.282 19.3936C17.9818 19.1683 17.1828 19.08 16.8172 19.2318ZM23.1125 22.4578C22.4551 22.7498 22.0778 23.5131 22.2184 24.2667C22.3053 24.7325 22.8003 25.2838 23.2507 25.4165C23.4882 25.4864 24.8373 25.5128 27.1534 25.4925C30.5487 25.463 30.7045 25.4533 30.9671 25.256C31.4877 24.865 31.6501 24.5462 31.6501 23.9154C31.6501 23.2847 31.4877 22.9658 30.9671 22.5749C30.7036 22.377 30.5563 22.3683 27.0542 22.3463C24.1799 22.3282 23.3515 22.3516 23.1125 22.4578ZM16.8172 32.0009C16.6808 32.0575 15.3313 33.3465 13.8181 34.8652L11.0671 37.6265L9.84944 36.4164C8.54613 35.1212 8.30513 34.9875 7.53491 35.1327C7.06621 35.2212 6.43232 35.8586 6.34431 36.3298C6.18844 37.1657 6.26831 37.2869 8.36595 39.396C10.0255 41.0645 10.3744 41.3695 10.6906 41.4272C11.5904 41.5916 11.5215 41.645 15.304 37.8517C17.7864 35.3621 18.8334 34.2464 18.9121 34.0065C19.133 33.3333 18.8886 32.6181 18.282 32.1627C17.9818 31.9375 17.1828 31.8492 16.8172 32.0009ZM23.1125 35.2269C22.4551 35.5189 22.0778 36.2823 22.2184 37.0358C22.3053 37.5016 22.8003 38.053 23.2507 38.1857C23.4882 38.2556 24.8373 38.2819 27.1534 38.2617C30.5487 38.2321 30.7045 38.2225 30.9671 38.0251C31.4877 37.6342 31.6501 37.3154 31.6501 36.6846C31.6501 36.0538 31.4877 35.735 30.9671 35.344C30.7036 35.1461 30.5563 35.1374 27.0542 35.1155C24.1799 35.0973 23.3515 35.1208 23.1125 35.2269Z" fill="#D29650"/>
</svg>
