<svg width="19" height="19" viewBox="0 0 19 19" fill="none" xmlns="http://www.w3.org/2000/svg">
<path d="M7.29012 19.0002C6.46394 18.9962 5.6468 18.8279 4.88626 18.5052C4.12573 18.1824 3.43698 17.7116 2.86012 17.1202C2.28758 16.5775 1.82767 15.9273 1.5067 15.2067C1.18573 14.4861 1.01 13.7093 0.989562 12.9208C0.969128 12.1322 1.10439 11.3474 1.38761 10.6111C1.67084 9.87488 2.09646 9.20172 2.64012 8.63016L10.0001 1.20016C10.3932 0.807833 10.8616 0.499231 11.3772 0.292984C11.8929 0.0867373 12.4449 -0.0128771 13.0001 0.000155444C13.5948 0.00218059 14.1832 0.122594 14.7309 0.354375C15.2786 0.586155 15.7746 0.924662 16.1901 1.35016C17.0171 2.14639 17.4967 3.23667 17.5248 4.38433C17.5529 5.53199 17.1272 6.64442 16.3401 7.48015L8.94012 14.9102C8.7031 15.1488 8.42105 15.3379 8.11034 15.4667C7.79963 15.5954 7.46645 15.6612 7.13012 15.6602C6.76679 15.6606 6.40705 15.5883 6.07214 15.4475C5.73722 15.3067 5.43391 15.1001 5.18012 14.8402C4.67285 14.349 4.37989 13.6775 4.36491 12.9716C4.34993 12.2657 4.61414 11.5824 5.10012 11.0702L11.9301 4.21016C12.1245 4.08106 12.3579 4.024 12.5899 4.04887C12.8219 4.07374 13.038 4.17896 13.2006 4.34632C13.3632 4.51367 13.4621 4.73263 13.4803 4.96526C13.4985 5.1979 13.4348 5.42957 13.3001 5.62016L6.47012 12.4802C6.35623 12.6174 6.30079 12.7938 6.31575 12.9715C6.33072 13.1492 6.41488 13.3139 6.55012 13.4302C6.69083 13.5718 6.88052 13.6542 7.08012 13.6602C7.15405 13.6612 7.22747 13.6476 7.29612 13.6202C7.36477 13.5927 7.42731 13.5519 7.48012 13.5002L14.8701 6.07016C15.2849 5.60934 15.5017 5.00379 15.4737 4.38441C15.4456 3.76502 15.1749 3.18157 14.7201 2.76016C14.2977 2.3216 13.7233 2.06162 13.115 2.03371C12.5067 2.00581 11.9109 2.21211 11.4501 2.61016L4.06012 10.0002C3.70076 10.3861 3.42128 10.8394 3.23775 11.3337C3.05421 11.8281 2.97025 12.354 2.9907 12.8809C3.01115 13.4079 3.13559 13.9256 3.35688 14.4043C3.57817 14.883 3.89194 15.3132 4.28012 15.6702C4.6694 16.0737 5.13519 16.3956 5.65028 16.6171C6.16538 16.8386 6.71944 16.9552 7.28012 16.9602C7.76354 16.9641 8.24297 16.8725 8.69087 16.6905C9.13878 16.5086 9.54633 16.24 9.89012 15.9002L17.2801 8.47016C17.3727 8.37692 17.4827 8.30283 17.604 8.25212C17.7252 8.2014 17.8552 8.17506 17.9866 8.1746C18.118 8.17414 18.2482 8.19956 18.3697 8.24941C18.4913 8.29926 18.6019 8.37257 18.6951 8.46516C18.7884 8.55774 18.8624 8.66778 18.9132 8.78899C18.9639 8.91021 18.9902 9.04023 18.9907 9.17162C18.9911 9.30302 18.9657 9.43322 18.9159 9.55479C18.866 9.67636 18.7927 9.78692 18.7001 9.88016L11.3101 17.3102C10.7854 17.8441 10.1598 18.2685 9.46974 18.5586C8.77962 18.8487 8.03873 18.9988 7.29012 19.0002Z" fill="black"/>
</svg>
